# Blender 4.0.1
# www.blender.org
mtllib corp.mtl
o Cube.004
v -1.994081 0.400000 -1.000000
v -3.129637 0.517591 -1.000000
v -1.994081 0.400000 1.000000
v -3.129637 0.517591 1.000000
v -3.283953 0.610729 -1.000000
v -3.600000 1.007947 -1.000000
v -3.507432 0.806083 -1.000000
v -3.600000 1.007947 1.000000
v -3.283953 0.610729 1.000000
v -3.507432 0.806083 1.000000
v -3.600000 1.707231 -1.000000
v -3.107231 2.200000 -1.000000
v -3.575882 1.859505 -1.000000
v -3.505889 1.996873 -1.000000
v -3.396873 2.105889 -1.000000
v -3.259505 2.175882 -1.000000
v -3.107231 2.200000 1.000000
v -3.600000 1.707231 1.000000
v -3.259505 2.175882 1.000000
v -3.396873 2.105889 1.000000
v -3.505889 1.996873 1.000000
v -3.575882 1.859505 1.000000
v 3.600000 1.093867 -1.000000
v 2.906133 0.400000 -1.000000
v 3.396771 0.603229 -1.000000
v 2.906133 0.400000 1.000000
v 3.600000 1.093867 1.000000
v 3.396771 0.603229 1.000000
v 2.950797 2.200000 -1.000000
v 3.600000 1.550797 -1.000000
v 3.409853 2.009853 -1.000000
v 3.600000 1.550797 1.000000
v 2.950797 2.200000 1.000000
v 3.409853 2.009853 1.000000
v -3.200000 0.600000 0.800000
v 3.200000 0.600000 0.800000
v -3.200000 1.685887 2.200000
v -3.200000 2.049420 2.068242
v 3.200000 1.685887 2.200000
v 3.200000 2.049420 2.068242
v -3.200000 0.600000 2.043195
v -3.200000 0.779206 2.200000
v -3.200000 0.652488 2.154073
v 3.200000 0.779206 2.200000
v 3.200000 0.600000 2.043195
v 3.200000 0.652488 2.154073
v 2.496701 2.200000 0.800000
v 3.200000 2.024175 0.800000
v 2.994008 2.148502 0.800000
v 3.200000 2.049420 2.068242
v 2.496701 2.200000 1.750151
v 2.994008 2.155896 1.843318
v -3.200000 2.032490 0.800000
v -2.529959 2.200000 0.800000
v -3.003750 2.150937 0.800000
v -2.529959 2.200000 1.750151
v -3.200000 2.049420 2.068242
v -3.003750 2.155896 1.843318
v 3.200000 0.600000 -0.800000
v -3.200000 0.600000 -0.800000
v 3.200000 1.685887 -2.200000
v 3.200000 2.049420 -2.068242
v -3.200000 1.685887 -2.200000
v -3.200000 2.049420 -2.068242
v 3.200000 0.600000 -2.043195
v 3.200000 0.779206 -2.200000
v 3.200000 0.652488 -2.154073
v -3.200000 0.779206 -2.200000
v -3.200000 0.600000 -2.043195
v -3.200000 0.652488 -2.154073
v -2.496701 2.200000 -0.800000
v -3.200000 2.024175 -0.800000
v -2.994008 2.148502 -0.800000
v -3.200000 2.049420 -2.068242
v -2.496701 2.200000 -1.750151
v -2.994008 2.155896 -1.843318
v 3.200000 2.032490 -0.800000
v 2.529959 2.200000 -0.800000
v 3.003750 2.150937 -0.800000
v 2.529959 2.200000 -1.750151
v 3.200000 2.049420 -2.068242
v 3.003750 2.155896 -1.843318
vn -0.0000 -0.0000 1.0000
vn -0.1030 -0.9947 -0.0000
vn -0.0000 -0.0000 -1.0000
vn -0.0000 1.0000 -0.0000
vn -0.9090 -0.4168 -0.0000
vn -0.6581 -0.7529 -0.0000
vn -0.5167 -0.8561 -0.0000
vn -0.1564 0.9877 -0.0000
vn -0.4540 0.8910 -0.0000
vn -0.7071 0.7071 -0.0000
vn -0.8910 0.4540 -0.0000
vn -0.9877 0.1564 -0.0000
vn -1.0000 -0.0000 -0.0000
vn 0.3827 -0.9239 -0.0000
vn 0.9239 -0.3827 -0.0000
vn -0.0000 -1.0000 -0.0000
vn 0.3827 0.9239 -0.0000
vn 0.9239 0.3827 -0.0000
vn 1.0000 -0.0000 -0.0000
vn -0.0000 0.9038 0.4279
vn -0.0000 0.3407 0.9402
vn -0.0000 -0.9038 0.4279
vn -0.0000 -0.3407 0.9402
vn 0.4938 0.8695 -0.0123
vn 0.0960 0.9954 -0.0037
vn -0.0981 0.9952 -0.0025
vn -0.5007 0.8656 -0.0082
vn -0.0000 0.9038 -0.4279
vn -0.0000 0.3407 -0.9402
vn -0.0000 -0.9038 -0.4279
vn -0.0000 -0.3407 -0.9402
vn -0.4938 0.8695 0.0123
vn -0.0960 0.9954 0.0037
vn 0.0981 0.9952 0.0025
vn 0.5007 0.8656 0.0082
vt 0.375000 0.274093
vt 0.403226 0.257057
vt 0.471370 0.250000
vt 0.534833 0.250000
vt 0.598591 0.256602
vt 0.625000 0.272542
vt 0.625000 0.482890
vt 0.621650 0.488177
vt 0.611929 0.492947
vt 0.596788 0.496732
vt 0.577709 0.499163
vt 0.556560 0.500000
vt 0.459437 0.500000
vt 0.431400 0.496786
vt 0.404268 0.489026
vt 0.391332 0.483668
vt 0.375000 0.444239
vt 0.319239 0.750000
vt 0.319239 0.500000
vt 0.375000 0.500000
vt 0.375000 0.750000
vt 0.375000 0.805761
vt 0.391332 0.766332
vt 0.404268 0.760974
vt 0.431400 0.753214
vt 0.459437 0.750000
vt 0.556560 0.750000
vt 0.577709 0.750837
vt 0.596788 0.753268
vt 0.611929 0.757053
vt 0.621650 0.761823
vt 0.625000 0.767110
vt 0.625000 0.977458
vt 0.598591 0.993398
vt 0.534833 1.000000
vt 0.471370 1.000000
vt 0.403226 0.992943
vt 0.375000 0.975907
vt 0.642110 0.500000
vt 0.852458 0.500000
vt 0.852458 0.750000
vt 0.642110 0.750000
vt 0.459437 0.500000
vt 0.459437 0.750000
vt 0.430761 0.750000
vt 0.430761 0.500000
vt 0.393294 0.750000
vt 0.393294 0.500000
vt 0.636823 0.750000
vt 0.636823 0.500000
vt 0.632053 0.750000
vt 0.632053 0.500000
vt 0.596788 0.750000
vt 0.596788 0.500000
vt 0.577709 0.750000
vt 0.577709 0.500000
vt 0.149093 0.500000
vt 0.149093 0.750000
vt 0.125000 0.750000
vt 0.125000 0.500000
vt 0.375000 0.250000
vt 0.375000 0.000000
vt 0.471370 0.000000
vt 0.875000 0.500000
vt 0.875000 0.750000
vt 0.625000 0.000000
vt 0.625000 0.250000
vt 0.534833 0.000000
vt 0.597527 0.500000
vt 0.601472 0.726472
vt 0.544670 0.750000
vt 0.403001 0.750000
vt 0.383201 0.741799
vt 0.375000 0.721999
vt 0.625000 0.750000
vt 0.633047 0.693198
vt 0.652473 0.669670
vt 0.848827 0.669670
vt 0.867334 0.693198
vt 0.403001 0.750000
vt 0.544670 1.000000
vt 0.403001 1.000000
vt 0.625000 1.000000
vt 0.652473 0.500000
vt 0.848827 0.500000
vt 0.652473 0.669670
vt 0.125000 0.721999
vt 0.375000 1.000000
vt 0.625000 0.500000
vt 0.625000 0.669670
vt 0.375000 0.028001
vt 0.383201 0.008201
vt 0.403001 0.000000
vt 0.544670 0.000000
vt 0.601472 0.023528
vt 0.598827 0.250000
vt 0.875000 0.669670
vt 0.625000 0.080330
vt 0.617334 0.257666
vt 0.625000 0.276173
vt 0.625000 0.472527
vt 0.616953 0.491953
vt 0.597527 0.500000
s 0
f 26/1/1 28/2/1 27/3/1 32/4/1 34/5/1 33/6/1 17/7/1 19/8/1 20/9/1 21/10/1 22/11/1 18/12/1 8/13/1 10/14/1 9/15/1 4/16/1 3/17/1
f 1/18/2 3/19/2 4/20/2 2/21/2
f 1/22/3 2/23/3 5/24/3 7/25/3 6/26/3 11/27/3 13/28/3 14/29/3 15/30/3 16/31/3 12/32/3 29/33/3 31/34/3 30/35/3 23/36/3 25/37/3 24/38/3
f 17/39/4 33/40/4 29/41/4 12/42/4
f 8/43/5 6/44/5 7/45/5 10/46/5
f 10/46/6 7/45/6 5/47/6 9/48/6
f 2/21/7 4/20/7 9/48/7 5/47/7
f 17/39/8 12/42/8 16/49/8 19/50/8
f 19/50/9 16/49/9 15/51/9 20/52/9
f 20/52/10 15/51/10 14/53/10 21/54/10
f 21/54/11 14/53/11 13/55/11 22/56/11
f 22/56/12 13/55/12 11/27/12 18/12/12
f 8/43/13 18/12/13 11/27/13 6/44/13
f 26/57/14 24/58/14 25/59/14 28/60/14
f 28/61/15 25/62/15 23/63/15 27/3/15
f 26/57/16 3/19/16 1/18/16 24/58/16
f 29/41/17 33/40/17 34/64/17 31/65/17
f 31/66/18 34/67/18 32/4/18 30/68/18
f 23/63/19 30/68/19 32/4/19 27/3/19
f 36/20/19 48/69/19 50/70/19 40/70/19 39/71/19 44/72/19 46/73/19 45/74/19
f 50/75/20 52/76/20 51/77/20 56/78/20 58/79/20 57/65/20 38/65/20 40/75/20
f 44/80/1 39/71/1 37/81/1 42/82/1
f 40/75/21 38/83/21 37/81/21 39/71/21
f 47/84/4 54/85/4 56/78/4 51/86/4
f 41/87/22 45/74/22 46/21/22 43/59/22
f 43/88/23 46/21/23 44/80/23 42/82/23
f 35/60/16 36/20/16 45/74/16 41/87/16
f 50/70/24 48/69/24 49/89/24 52/90/24
f 52/90/25 49/89/25 47/84/25 51/86/25
f 41/91/13 43/92/13 42/93/13 37/94/13 38/95/13 57/95/13 53/96/13 35/61/13
f 56/78/26 54/85/26 55/64/26 58/97/26
f 58/98/27 55/67/27 53/96/27 57/95/27
f 35/61/3 53/96/3 55/99/3 54/100/3 47/101/3 49/102/3 48/103/3 36/20/3
f 60/20/13 72/69/13 74/70/13 64/70/13 63/71/13 68/72/13 70/73/13 69/74/13
f 74/75/28 76/76/28 75/77/28 80/78/28 82/79/28 81/65/28 62/65/28 64/75/28
f 68/80/3 63/71/3 61/81/3 66/82/3
f 64/75/29 62/83/29 61/81/29 63/71/29
f 71/84/4 78/85/4 80/78/4 75/86/4
f 65/87/30 69/74/30 70/21/30 67/59/30
f 67/88/31 70/21/31 68/80/31 66/82/31
f 59/60/16 60/20/16 69/74/16 65/87/16
f 74/70/32 72/69/32 73/89/32 76/90/32
f 76/90/33 73/89/33 71/84/33 75/86/33
f 65/91/19 67/92/19 66/93/19 61/94/19 62/95/19 81/95/19 77/96/19 59/61/19
f 80/78/34 78/85/34 79/64/34 82/97/34
f 82/98/35 79/67/35 77/96/35 81/95/35
f 59/61/1 77/96/1 79/99/1 78/100/1 71/101/1 73/102/1 72/103/1 60/20/1
